<?xml version="1.0" standalone="no"?>
<!DOCTYPE svg PUBLIC "-//W3C//DTD SVG 20010904//EN"
 "http://www.w3.org/TR/2001/REC-SVG-20010904/DTD/svg10.dtd">
<svg version="1.0" xmlns="http://www.w3.org/2000/svg"
 width="500.000000pt" height="500.000000pt" viewBox="0 0 500.000000 500.000000"
 preserveAspectRatio="xMidYMid meet">

<g transform="translate(0.000000,500.000000) scale(0.100000,-0.100000)"
fill="#e7f9ff" stroke="none">
<path d="M1717 3828 l-777 -450 2 -197 c3 -176 5 -196 20 -199 16 -3 18 13 20
188 l3 192 750 434 c412 239 756 434 764 434 8 0 353 -196 768 -436 560 -324
757 -434 766 -425 7 7 7 14 2 20 -10 8 -1535 892 -1538 890 -1 0 -352 -203
-780 -451z"/>
<path d="M1998 3463 c-30 -7 -29 -33 3 -62 20 -19 27 -31 20 -36 -7 -4 -19 -1
-27 6 -8 6 -18 9 -22 5 -9 -10 29 -37 47 -34 8 2 19 11 25 21 9 15 6 22 -16
41 -16 12 -28 27 -28 34 0 15 16 16 25 2 8 -13 25 -13 25 0 0 13 -32 27 -52
23z"/>
<path d="M2614 3455 c-10 -7 -16 -17 -12 -21 4 -4 14 -1 22 5 27 23 29 -9 3
-48 -14 -22 -23 -42 -20 -45 10 -10 63 -7 63 4 0 6 -9 10 -21 10 l-21 0 21 34
c26 41 26 53 2 65 -13 7 -24 6 -37 -4z"/>
<path d="M2100 3399 c0 -37 4 -58 10 -54 6 3 10 31 10 61 0 30 -4 54 -10 54
-6 0 -10 -27 -10 -61z"/>
<path d="M2170 3400 c0 -66 17 -83 22 -22 l3 37 20 -37 c10 -21 22 -38 27 -38
4 0 8 27 8 60 0 64 -19 85 -21 23 l-1 -38 -16 37 c-26 58 -42 49 -42 -22z"/>
<path d="M2307 3453 c-4 -3 -7 -26 -7 -49 0 -33 5 -46 20 -54 21 -11 60 2 60
20 0 13 -13 13 -27 -1 -18 -18 -33 -1 -33 36 0 37 15 54 33 36 16 -16 27 -14
21 4 -6 15 -55 21 -67 8z"/>
<path d="M2430 3400 c0 -60 0 -60 29 -60 17 0 33 5 36 10 4 6 -5 10 -19 10
-35 0 -38 40 -3 41 l22 0 -22 9 c-32 13 -29 38 5 43 22 3 20 4 -10 6 l-38 1 0
-60z"/>
<path d="M2727 3454 c-13 -14 -7 -91 8 -104 26 -22 46 6 43 59 -2 37 -7 47
-23 49 -12 2 -24 0 -28 -4z m33 -49 c0 -25 -4 -45 -10 -45 -5 0 -10 20 -10 45
0 25 5 45 10 45 6 0 10 -20 10 -45z"/>
<path d="M2853 3453 c-7 -2 -13 -9 -13 -14 0 -6 5 -7 10 -4 6 4 10 -13 10 -44
0 -28 5 -51 10 -51 6 0 10 27 10 60 0 59 -2 64 -27 53z"/>
<path d="M2957 3454 c-4 -4 -7 -20 -7 -36 0 -25 9 -33 33 -29 14 2 7 -20 -8
-25 -16 -7 -21 -24 -6 -24 42 0 57 112 16 118 -12 2 -24 0 -28 -4z m33 -29 c0
-14 -4 -25 -10 -25 -5 0 -10 11 -10 25 0 14 5 25 10 25 6 0 10 -11 10 -25z"/>
<path d="M3130 3399 c0 -5 5 -7 10 -4 6 3 10 8 10 11 0 2 -4 4 -10 4 -5 0 -10
-5 -10 -11z"/>
<path d="M4500 3043 c-128 -27 -157 -41 -166 -80 -4 -14 -2 -91 4 -169 9 -118
17 -160 45 -241 42 -123 39 -121 187 -83 43 12 117 40 152 60 10 6 24 10 31
10 7 0 23 10 35 23 22 23 22 24 4 40 -19 17 -56 13 -107 -13 -46 -22 -127 -50
-134 -45 -9 5 -45 102 -55 148 -5 21 -3 27 9 27 9 0 40 11 68 24 29 13 67 30
85 37 l34 12 -28 12 c-27 11 -42 10 -146 -10 l-38 -8 0 102 c0 117 -9 107 123
136 49 11 77 21 74 28 -6 19 -55 17 -177 -10z"/>
<path d="M3860 2939 c-28 -12 -60 -38 -60 -51 0 -4 13 -8 29 -8 28 0 30 -3 35
-47 3 -27 10 -79 16 -118 26 -184 32 -277 19 -301 -7 -13 -10 -26 -7 -29 7 -7
145 30 226 61 73 27 127 72 173 143 37 57 37 102 1 162 -84 140 -175 196 -322
197 -47 1 -96 -3 -110 -9z m203 -69 c14 -11 30 -20 36 -20 6 0 11 -5 11 -10 0
-6 15 -20 34 -31 19 -11 41 -35 50 -53 18 -39 21 -128 5 -158 -19 -35 -120
-118 -145 -118 -17 0 -22 27 -34 185 -7 77 -15 157 -20 177 -4 20 -5 39 -2 43
11 11 40 4 65 -15z"/>
<path d="M3044 2890 c-85 -7 -98 -20 -91 -91 3 -31 12 -72 20 -90 22 -50 37
-153 37 -261 0 -120 7 -158 30 -158 31 0 134 40 193 75 32 19 64 35 70 35 7 0
23 14 37 31 14 18 33 40 42 50 10 11 22 38 27 61 17 74 -11 98 -113 98 -62 0
-85 11 -52 23 8 3 19 23 25 43 12 44 -3 75 -66 137 -47 45 -78 54 -159 47z
m106 -167 c0 -18 -43 -93 -52 -93 -5 0 -8 15 -8 33 0 17 -3 57 -6 87 l-7 55
37 -34 c20 -19 36 -41 36 -48z m149 -128 c14 -14 14 -19 -4 -51 -18 -33 -119
-139 -149 -156 -11 -6 -17 11 -26 80 -7 48 -12 89 -11 92 0 3 13 9 29 14 15 5
38 17 52 28 29 21 84 18 109 -7z"/>
<path d="M3659 2843 c-7 -17 -8 -61 -5 -113 8 -102 8 -268 0 -292 -7 -24 -31
-23 -44 2 -12 23 -52 310 -48 348 3 20 -3 27 -32 38 -42 15 -90 17 -109 5 -30
-19 10 -275 60 -378 38 -80 76 -108 146 -108 42 0 58 5 90 31 70 57 74 71 76
271 l2 178 -45 22 c-60 30 -78 29 -91 -4z"/>
<path d="M2769 2831 c-19 -6 -29 -22 -29 -49 0 -13 -4 -20 -10 -17 -7 4 -9 -8
-5 -34 3 -23 7 -59 10 -80 3 -22 8 -97 11 -168 6 -128 17 -197 36 -220 15 -19
161 -17 198 2 34 17 34 19 19 46 -8 16 -19 20 -47 17 l-37 -3 -8 50 c-12 81
-26 171 -37 238 -6 34 -16 98 -23 142 -12 76 -14 80 -38 80 -15 1 -33 -1 -40
-4z"/>
<path d="M2446 2775 c-151 -33 -164 -39 -172 -84 -4 -20 -2 -98 4 -173 9 -110
18 -156 45 -235 42 -123 39 -121 187 -83 25 7 73 25 108 41 35 16 69 29 76 29
7 0 22 10 34 23 22 23 22 24 4 40 -21 19 -34 16 -175 -37 l-68 -26 -19 46
c-11 25 -23 58 -26 72 -3 15 -8 35 -11 45 -3 11 1 17 11 17 9 0 39 11 68 24
29 13 69 31 88 39 l35 15 -38 7 c-35 7 -57 5 -144 -11 l-33 -6 0 101 c0 117
-9 107 123 136 47 11 76 22 74 29 -6 18 -56 16 -171 -9z"/>
<path d="M1800 2669 c-28 -12 -60 -38 -60 -51 0 -4 13 -8 29 -8 28 0 30 -3 35
-47 3 -27 10 -77 15 -113 24 -163 34 -291 22 -303 -6 -6 -11 -17 -11 -24 0
-17 20 -13 168 34 94 29 120 42 161 79 60 54 101 121 101 166 0 18 -13 54 -28
79 -84 140 -175 196 -322 197 -47 1 -96 -3 -110 -9z m203 -69 c14 -11 30 -20
36 -20 6 0 11 -5 11 -10 0 -6 15 -20 34 -31 44 -26 66 -73 66 -143 0 -48 -4
-60 -32 -92 -38 -43 -105 -94 -123 -94 -18 0 -23 28 -36 185 -6 77 -14 157
-19 177 -4 20 -5 39 -2 43 11 11 40 4 65 -15z"/>
<path d="M994 2595 c-14 -19 -27 -49 -29 -66 -1 -17 -7 -34 -12 -38 -20 -12
-44 -432 -28 -473 6 -14 19 -18 60 -18 87 0 85 -2 85 117 l0 106 31 -7 c17 -3
37 -6 43 -6 6 0 27 -36 46 -81 40 -92 66 -114 100 -84 22 20 23 16 -20 170
-16 55 -34 127 -40 160 -13 66 -68 194 -91 211 -14 10 -98 44 -111 44 -4 0
-19 -16 -34 -35z m146 -325 c0 -4 -13 -5 -30 -2 -30 4 -30 5 -30 66 0 35 3 66
7 70 6 6 53 -113 53 -134z"/>
<path d="M1295 2597 c-50 -28 -58 -54 -18 -59 31 -3 28 9 53 -208 6 -58 16
-134 20 -170 8 -52 6 -67 -5 -80 -14 -15 -21 -40 -11 -40 13 0 211 63 252 80
27 12 69 40 92 63 44 42 92 122 92 153 0 29 -59 128 -108 180 -58 63 -122 89
-242 98 -77 6 -89 4 -125 -17z m262 -98 c91 -70 96 -78 95 -162 -2 -69 -3 -72
-42 -112 -51 -52 -116 -90 -126 -74 -3 6 -13 81 -20 168 -7 86 -16 173 -20
194 -5 35 -4 37 20 37 15 0 53 -21 93 -51z"/>
<path d="M509 2502 c-68 -23 -179 -90 -179 -108 0 -8 5 -14 11 -14 5 0 15 -13
20 -29 6 -15 20 -33 33 -39 20 -9 24 -20 29 -79 12 -143 29 -298 33 -302 2 -3
11 2 19 10 9 9 15 40 16 89 3 108 9 123 50 132 53 11 229 135 298 210 l43 47
-34 31 c-55 52 -84 62 -187 66 -75 3 -108 0 -152 -14z m272 -90 c-12 -23 -91
-84 -190 -147 l-74 -47 6 30 c3 16 9 52 13 81 4 28 12 55 18 58 12 8 163 38
208 41 25 2 28 0 19 -16z"/>
<path d="M4020 1801 l0 -198 -755 -437 c-415 -240 -760 -436 -766 -436 -6 0
-347 194 -756 431 -409 237 -751 432 -760 433 -9 0 -18 -4 -20 -10 -4 -11
1514 -894 1537 -894 8 0 359 200 780 444 l765 443 3 211 c2 184 0 212 -13 212
-13 0 -15 -28 -15 -199z"/>
<path d="M1422 1598 c-19 -19 -14 -36 13 -54 14 -9 25 -23 25 -30 0 -17 -12
-18 -28 -2 -6 6 -15 8 -19 4 -12 -12 26 -35 47 -29 29 8 25 47 -6 68 -19 12
-23 20 -15 28 7 7 15 6 26 -3 12 -10 15 -10 15 3 0 25 -38 35 -58 15z"/>
<path d="M1520 1601 c0 -5 7 -11 15 -15 10 -4 15 -20 15 -51 0 -25 5 -45 10
-45 6 0 10 23 10 50 0 39 4 50 16 50 8 0 12 5 9 10 -8 12 -75 13 -75 1z"/>
<path d="M1645 1598 c-36 -100 -40 -127 -13 -100 16 16 45 15 51 0 2 -7 7 -10
11 -7 8 7 -22 106 -34 114 -6 4 -12 0 -15 -7z m25 -60 c0 -5 -6 -8 -14 -8 -9
0 -12 7 -9 21 4 16 8 17 14 7 5 -7 9 -16 9 -20z"/>
<path d="M1740 1553 c0 -36 4 -63 10 -63 6 0 10 15 11 33 l0 32 16 -32 c26
-51 43 -42 43 21 0 30 -4 58 -10 61 -6 4 -10 -8 -10 -29 0 -20 -4 -36 -10 -36
-5 0 -10 6 -10 14 0 8 -9 24 -20 37 l-19 24 -1 -62z"/>
<path d="M1860 1551 c0 -57 2 -61 23 -61 31 0 47 18 47 55 0 39 -9 52 -43 60
l-27 7 0 -61z m45 -6 c0 -22 -5 -40 -12 -42 -9 -3 -13 9 -13 42 0 33 4 45 13
43 7 -3 12 -21 12 -43z"/>
<path d="M2046 1603 c-8 -8 -8 -61 0 -90 7 -24 34 -35 58 -21 12 7 16 23 16
65 0 67 -17 62 -22 -6 -4 -65 -28 -66 -28 -2 0 47 -9 68 -24 54z"/>
<path d="M2160 1550 c0 -33 4 -60 10 -60 6 0 10 9 10 20 0 13 7 20 19 20 45 0
52 62 8 74 -44 12 -47 9 -47 -54z m55 20 c0 -8 -8 -16 -17 -18 -13 -2 -18 3
-18 18 0 15 5 20 18 18 9 -2 17 -10 17 -18z"/>
<path d="M2330 1550 c0 -33 4 -60 10 -60 6 0 10 9 10 19 0 13 8 21 23 23 48 7
26 78 -25 78 -15 0 -18 -9 -18 -60z m48 17 c2 -10 -3 -17 -12 -17 -10 0 -16 9
-16 21 0 24 23 21 28 -4z"/>
<path d="M2455 1599 c-36 -101 -40 -128 -13 -101 16 16 45 15 51 0 2 -7 7 -11
10 -8 8 7 -20 101 -33 114 -6 6 -11 4 -15 -5z m25 -61 c0 -5 -6 -8 -14 -8 -9
0 -12 7 -9 21 4 16 8 17 14 7 5 -7 9 -16 9 -20z"/>
<path d="M2547 1603 c-4 -3 -7 -30 -7 -60 0 -51 1 -53 28 -53 37 0 52 17 52
56 0 42 -50 81 -73 57z m48 -58 c0 -22 -5 -40 -12 -42 -9 -3 -13 9 -13 42 0
33 4 45 13 43 7 -3 12 -21 12 -43z"/>
<path d="M2657 1603 c-4 -3 -7 -30 -7 -60 0 -51 1 -53 28 -53 37 0 52 17 52
56 0 42 -50 81 -73 57z m48 -58 c0 -22 -5 -40 -12 -42 -9 -3 -13 9 -13 42 0
33 4 45 13 43 7 -3 12 -21 12 -43z"/>
<path d="M2770 1550 l0 -60 38 1 c30 2 32 3 10 6 -27 4 -28 7 -28 59 0 30 -4
54 -10 54 -6 0 -10 -27 -10 -60z"/>
<path d="M2867 1603 c-4 -3 -7 -30 -7 -60 l0 -53 38 1 c23 1 28 3 15 6 -26 5
-33 43 -8 43 8 0 15 5 15 10 0 6 -7 10 -15 10 -8 0 -15 7 -15 15 0 8 9 15 20
15 11 0 20 5 20 10 0 11 -53 14 -63 3z"/>
<path d="M3035 1600 c-14 -22 -16 -108 -3 -112 28 -9 63 7 64 30 0 15 -4 21
-12 18 -19 -7 -28 12 -14 29 10 12 10 18 0 30 -15 18 -26 19 -35 5z m25 -20
c0 -5 -4 -10 -10 -10 -5 0 -10 5 -10 10 0 6 5 10 10 10 6 0 10 -4 10 -10z m0
-71 c0 -5 -4 -9 -10 -9 -5 0 -10 7 -10 16 0 8 5 12 10 9 6 -3 10 -10 10 -16z"/>
<path d="M3202 1598 c-19 -19 -14 -36 13 -54 14 -9 25 -23 25 -30 0 -17 -27
-19 -33 -1 -2 6 -8 8 -13 4 -16 -15 26 -38 47 -26 27 14 24 47 -6 61 -14 6
-25 17 -25 25 0 17 27 17 33 1 2 -7 8 -10 12 -6 10 9 -13 38 -29 38 -7 0 -17
-5 -24 -12z"/>
<path d="M3298 1604 c-10 -9 -10 -86 0 -100 11 -17 35 -22 55 -12 13 7 17 21
17 63 0 30 -4 55 -10 55 -5 0 -10 -22 -10 -49 0 -46 -13 -72 -28 -56 -4 3 -9
29 -12 57 -3 27 -8 46 -12 42z"/>
<path d="M3410 1550 c0 -33 4 -60 10 -60 6 0 10 9 10 20 0 11 4 20 9 20 5 0
13 -9 16 -20 11 -35 22 -22 23 30 1 39 -3 52 -18 60 -41 22 -50 14 -50 -50z
m50 20 c0 -11 -7 -20 -15 -20 -8 0 -15 9 -15 20 0 11 7 20 15 20 8 0 15 -9 15
-20z"/>
<path d="M3520 1550 c0 -33 4 -60 10 -60 6 0 10 11 10 24 0 18 7 26 23 29 l22
4 -22 2 c-30 1 -33 41 -3 41 11 0 20 5 20 10 0 6 -13 10 -30 10 l-30 0 0 -60z"/>
<path d="M1240 1550 c0 -5 5 -10 11 -10 5 0 7 5 4 10 -3 6 -8 10 -11 10 -2 0
-4 -4 -4 -10z"/>
<path d="M3735 1550 c-3 -5 -1 -10 4 -10 6 0 11 5 11 10 0 6 -2 10 -4 10 -3 0
-8 -4 -11 -10z"/>
<path d="M1978 1533 c6 -2 18 -2 25 0 6 3 1 5 -13 5 -14 0 -19 -2 -12 -5z"/>
</g>
</svg>
